<?xml version="1.0" encoding="UTF-8"?>
<svg id="Layer_1" data-name="Layer 1" xmlns="http://www.w3.org/2000/svg" viewBox="0 0 683.89 72">
  <defs>
    <style>
      .cls-1 {
        fill: #333;
        stroke-width: 0px;
      }
    </style>
  </defs>
  <path class="cls-1" d="m222.82,65.16c-5.52,2.67-14.06,3.4-20.86,3.4-8.19,0-17-.46-25.92-1.01v-11.77c7.72.83,17.64,1.47,24.36,1.47,5.43,0,10.84-.37,13.78-1.01,3.96-1.01,4.87-3.17,4.87-6.2,0-3.31-1.29-5.08-5.06-6.27-3.86-1.01-10.36-1.75-15.6-2.67-15.45-2.58-22.53-6.64-22.53-18.41,0-6.99,2.48-12.73,9.75-16.23,5.43-2.58,13.41-3.03,19.76-3.03,7.27,0,15.34.46,23.35,1.01v11.41c-7.36-.83-16.72-1.38-23.62-1.38-3.59,0-8.26.28-11.2.92-3.59.92-4.69,2.8-4.69,5.74,0,3.13,1.2,4.89,4.87,5.91,3.77,1.01,10.18,1.75,14.87,2.48,15.64,2.39,23.73,6.46,23.73,19.06,0,7.17-2.58,13.1-9.84,16.6Z"/>
  <path class="cls-1" d="m252.16,67.49V4.49h52.58v11.04h-38.51v14.21h36.94v11.04h-36.94v15.68h40.07v11.04h-54.14Z"/>
  <polygon class="cls-1" points="341.76 34.88 372.13 4.51 389.57 4.49 359.2 34.88 391.81 67.48 374.38 67.48 341.76 34.88"/>
  <path class="cls-1" d="m408.31,67.49V4.49h14.07v63h-14.07Z"/>
  <path class="cls-1" d="m503.43,63.08c-6.62,4.23-14.62,4.42-29.25,4.42h-26.78V4.49h26.14c12.6,0,20.33.18,26.77,4.05,4.6,2.76,6.44,6.99,6.44,12.51,0,6.62-2.76,11.04-9.93,13.98v.37c8.09,1.84,13.34,5.98,13.34,14.9,0,6.07-2.21,10.03-6.71,12.78Zm-27.96-48.11h-14v15.27h14.09c12.23,0,17.11-.83,17.11-7.73,0-7.36-6.16-7.55-17.2-7.55Zm3.31,25.82h-17.31v16.14h17.4c12.42,0,17.11-1.31,17.11-8.11,0-7.27-6.44-8.02-17.2-8.02Z"/>
  <polygon class="cls-1" points="341.44 47.66 341.44 67.49 327.37 67.49 327.37 4.49 341.44 4.49 341.44 32.08 341.44 47.66"/>
  <path class="cls-1" d="m586.19,67.49l-7.22-14.35h-36.15l-7.13,14.35h-15.18l32.47-63h16.56l32.37,63h-15.73Zm-25.2-50.77h-.37l-12.6,25.38h25.66l-12.69-25.38Z"/>
  <path class="cls-1" d="m671.01,4.49v42.09h-.28s-42.07-42.09-42.07-42.09h-11.03v63h12.88V25.42h.28s42.06,42.07,42.06,42.07h11.03V4.49h-12.88Z"/>
  <g>
    <path class="cls-1" d="m30.2,72h86.29l26.32-45.82H56.52l-26.32,45.82Zm33.86-32.73h56.09l-11.2,19.64h-56.09l11.2-19.64Z"/>
    <polygon class="cls-1" points="0 72 15.1 72 48.98 13.09 150.37 13.09 157.93 0 41.44 0 0 72"/>
  </g>
</svg>