<?xml version="1.0" encoding="utf-8"?>
<!-- Generator: Adobe Illustrator 21.1.0, SVG Export Plug-In . SVG Version: 6.00 Build 0)  -->
<svg version="1.1" id="レイヤー_1" xmlns="http://www.w3.org/2000/svg" xmlns:xlink="http://www.w3.org/1999/xlink" x="0px"
	 y="0px" viewBox="0 0 497.4 60.8" style="enable-background:new 0 0 497.4 60.8;" xml:space="preserve">
<style type="text/css">
	.st0{fill:#852E2E;}
</style>
<title>J-Tech_logo02</title>
<g id="レイヤー_2">
	<g id="レイヤー_1-2">
		<path class="st0" d="M0,0v60.8h60.8V0H0z M30.4,6.3c2.4,0.1,4.2,2,4.1,4.4c-0.1,2.4-2,4.2-4.4,4.1c-2.3-0.1-4.1-1.9-4.1-4.3
			C26,8.2,27.9,6.3,30.4,6.3C30.3,6.3,30.4,6.3,30.4,6.3z M47.8,45.3c-0.1,0-0.2,0-0.3-0.1c-0.5-0.3-1-0.6-1.4-0.9
			c-3-2-4.6-3.7-5.4-5.5c-1.1-2.6-1.1-4.8-1.1-10.7c0,0,0-3.4,0-5.5s-1.1-2.8-4.6-2.9h-3v21.6c0,3.5,0,9.4,0.2,10.9
			c0.1,1,0.3,1.8,1.4,2c0.5,0.1,1.1,0.1,1.7,0.1c0.2,0,0.3,0.1,0.3,0.2s-0.2,0.3-0.6,0.3c-2,0-4.3-0.1-4.5-0.1s-2.5,0.1-3.6,0.1
			c-0.4,0-0.6-0.1-0.6-0.3s0.1-0.2,0.3-0.2c0.4,0,0.7-0.1,1.1-0.1c0.7-0.1,0.9-0.9,1.1-2c0.2-1.5,0.2-7.4,0.2-10.9V19.7h-3.1
			c-3.5,0.1-4.6,0.8-4.6,2.9s0,5.5,0,5.5c0,5.9,0,8.1-1.1,10.7c-0.8,1.8-2.4,3.5-5.4,5.5c-0.5,0.3-0.9,0.6-1.4,0.9
			c-0.1,0-0.2,0.1-0.3,0.1c-0.1,0-0.2-0.1-0.3-0.2c0,0,0,0,0,0c0-0.2,0.2-0.3,0.5-0.5c0.5-0.3,0.9-0.6,1.3-1
			c2.4-2.4,3.5-4.3,3.5-13.6c0,0,0-8-0.1-9.1s-0.3-1.8-1.5-2.1c-0.4-0.1-0.8-0.1-1.2-0.1c-0.1,0-0.3-0.1-0.3-0.2s0.2-0.3,0.6-0.3
			c1.7,0,4,0.1,4.2,0.1h21.6c0.2,0,2.5-0.1,4.2-0.1c0.4,0,0.6,0.1,0.6,0.3s-0.2,0.2-0.3,0.2c-0.4,0-0.8,0-1.2,0.1
			c-1.2,0.2-1.5,0.8-1.6,2.1s-0.1,9.1-0.1,9.1c0,9.3,1.1,11.2,3.5,13.6c0.4,0.4,0.8,0.7,1.3,1c0.3,0.2,0.5,0.3,0.5,0.5
			C48.1,45.2,48,45.3,47.8,45.3C47.8,45.3,47.8,45.3,47.8,45.3L47.8,45.3z"/>
		<path class="st0" d="M97.6,25.9c0-7,0-8.3-0.1-9.8s-0.5-2.3-2-2.6c-0.6-0.1-1.2-0.2-1.8-0.1c-0.5,0-0.8-0.1-0.8-0.4s0.3-0.4,1-0.4
			c2.4,0,5.4,0.1,6.6,0.1s4-0.1,5.8-0.1c0.7,0,1,0.1,1,0.4s-0.3,0.4-0.8,0.4c-0.5,0-0.9,0-1.3,0.1c-1.2,0.2-1.6,1-1.7,2.6
			c-0.1,1.6-0.1,2.8-0.1,9.8v8.5c0,2,0.1,4.2,0.1,6.5c0.1,2.8-0.3,5.5-1.1,8.2c-1,2.8-3.4,6-7.8,8.7c-0.7,0.4-1.5,0.8-2.3,1.2
			c-0.3,0.2-0.6,0.3-0.9,0.3c-0.2,0-0.4-0.2-0.4-0.3c0,0,0,0,0,0c0-0.2,0.2-0.4,1-0.8c0.8-0.5,1.6-1.1,2.2-1.8
			c3.5-3.6,3.5-8.2,3.5-17.2L97.6,25.9"/>
		<path class="st0" d="M118.5,44.5c0-1.5,1.2-2.8,2.7-2.8c0,0,0.1,0,0.1,0c1.5-0.1,2.7,1,2.8,2.5c0,0.1,0,0.1,0,0.2
			c0.1,1.5-1.1,2.9-2.6,3c-0.1,0-0.2,0-0.2,0c-1.5,0-2.7-1.1-2.8-2.6C118.5,44.6,118.5,44.6,118.5,44.5"/>
		<path class="st0" d="M143.6,15.1l-6.9,0.2c-2.7,0.1-3.8,0.3-4.5,1.3c-0.4,0.5-0.6,1-0.8,1.6c-0.1,0.4-0.2,0.6-0.5,0.6
			s-0.4-0.2-0.4-0.7c0-0.7,0.9-4.9,1-5.3c0.1-0.6,0.3-0.9,0.6-0.9c0.6,0.2,1.3,0.4,2,0.6c1.3,0.1,3.1,0.2,4.6,0.2H157
			c1.1,0,2.1-0.1,3.2-0.2c0.4-0.1,0.8-0.2,1.2-0.2c0.3,0,0.4,0.3,0.4,1c0,1-0.1,4.2-0.1,5.4c0,0.5-0.1,0.7-0.4,0.7s-0.5-0.2-0.5-0.9
			v-0.5c-0.1-1.2-1.3-2.5-5.4-2.6l-5.8-0.1V34c0,4.2,0,7.9,0.2,9.9c0.1,1.3,0.4,2.3,1.8,2.5c0.8,0.1,1.6,0.2,2.4,0.2
			c0.5,0,0.7,0.1,0.7,0.4s-0.4,0.5-0.9,0.5c-3.1,0-6-0.1-7.2-0.1c-1.1,0-4,0.1-5.8,0.1c-0.6,0-0.9-0.1-0.9-0.5s0.2-0.4,0.7-0.4
			c0.5,0,1.1-0.1,1.6-0.2c0.9-0.2,1.2-1.2,1.3-2.5c0.2-1.9,0.2-5.6,0.2-9.8L143.6,15.1"/>
		<path class="st0" d="M177.7,25.9c0-7,0-8.3-0.1-9.8s-0.5-2.3-2-2.6c-0.6-0.1-1.2-0.2-1.8-0.1c-0.5,0-0.8-0.1-0.8-0.4
			s0.3-0.4,1-0.4c1.2,0,2.6,0,3.7,0s2.3,0.1,2.9,0.1c1.5,0,10.7,0,11.6,0c0.7-0.1,1.3-0.2,2-0.3c0.2-0.1,0.5-0.1,0.7-0.2
			c0.2,0,0.3,0.2,0.3,0.4s-0.2,0.9-0.4,3c0,0.5-0.1,2.5-0.2,3.1c0,0.2-0.1,0.5-0.5,0.5s-0.4-0.2-0.4-0.6c0-0.6-0.1-1.1-0.3-1.7
			c-0.3-0.8-0.8-1.4-3.1-1.7c-0.8-0.1-5.6-0.2-6.6-0.2c-0.2,0-0.3,0.1-0.3,0.5v11.7c0,0.3,0,0.5,0.3,0.5c1,0,6.3,0,7.4-0.1
			c0.8,0.1,1.6-0.2,2.2-0.7c0.3-0.4,0.5-0.6,0.7-0.6s0.3,0.1,0.3,0.4s-0.2,1-0.4,3.4c0,0.9-0.2,2.8-0.2,3.1s0,0.9-0.4,0.9
			c-0.2,0-0.4-0.1-0.4-0.3c0,0,0-0.1,0-0.1c0-0.6-0.1-1.1-0.2-1.7c-0.2-0.9-0.9-1.6-2.6-1.8c-0.9-0.1-5.4-0.1-6.6-0.1
			c-0.2,0-0.3,0.2-0.3,0.5V34c0,1.6,0,5.8,0,7.2c0.1,3.2,0.8,3.9,5.5,3.9c1.5,0.1,2.9-0.1,4.3-0.5c1.2-0.5,1.8-1.5,2.1-3.4
			c0.1-0.5,0.2-0.7,0.5-0.7s0.4,0.4,0.4,0.8c-0.1,1.7-0.3,3.4-0.6,5.1c-0.3,1.2-0.7,1.2-2.5,1.2c-3.5,0-6-0.1-8-0.1
			s-3.4-0.1-4.8-0.1c-0.5,0-1.5,0-2.6,0s-2.3,0.1-3.2,0.1c-0.6,0-0.9-0.1-0.9-0.5s0.2-0.4,0.7-0.4c0.6,0,1.1-0.1,1.7-0.2
			c0.9-0.2,1.2-1.2,1.3-2.5c0.2-1.9,0.2-5.6,0.2-9.8L177.7,25.9"/>
		<path class="st0" d="M214,43c-4.5-4-5.7-9.2-5.7-13.6c0-4.8,1.9-9.4,5.4-12.7c3.3-3,7.7-4.9,14.6-4.9c2.2,0,4.5,0.1,6.7,0.5
			c1.8,0.2,3.2,0.7,4.6,0.8c0.5,0,0.7,0.3,0.7,0.6s-0.1,0.9-0.2,2.5s0,4.1-0.1,5c0,0.7-0.1,1.1-0.6,1.1s-0.5-0.4-0.5-1
			c-0.1-1.6-0.7-3.1-1.8-4.2c-1.5-1.6-5.1-2.9-9.4-2.9c-4,0-6.6,1-8.7,2.9c-3.4,3.1-4.2,7.5-4.2,12c0,11,8.4,16.4,14.6,16.4
			c4.1,0,6.6-0.5,8.4-2.6c0.7-0.9,1.3-1.9,1.6-3c0.1-0.7,0.2-0.9,0.6-0.9s0.4,0.3,0.4,0.7c-0.2,2.1-0.5,4.1-1,6.1
			c-0.1,0.6-0.6,1.1-1.2,1.3c-1.9,0.7-5.4,1.1-8.3,1.1C223.6,48.1,218.2,46.7,214,43"/>
		<path class="st0" d="M280.7,27.2c0.1,0,0.3-0.1,0.3-0.3v-1c0-7,0-8.3-0.1-9.8s-0.5-2.3-2-2.6c-0.6-0.1-1.2-0.2-1.8-0.1
			c-0.5,0-0.8-0.1-0.8-0.4s0.3-0.4,1-0.4c2.5,0,5.4,0.1,6.6,0.1s4-0.1,5.8-0.1c0.6,0,1,0.1,1,0.4s-0.3,0.4-0.8,0.4
			c-0.4,0-0.9,0.1-1.3,0.1c-1.2,0.2-1.6,1-1.7,2.6c-0.1,1.6-0.1,2.8-0.1,9.8V34c0,4.2,0,7.9,0.2,9.9c0.1,1.3,0.4,2.3,1.8,2.5
			c0.8,0.1,1.6,0.2,2.4,0.2c0.5,0,0.7,0.1,0.7,0.4s-0.4,0.5-0.9,0.5c-3,0-5.9-0.1-7.2-0.1c-1.1,0-4,0.1-5.8,0.1c-0.6,0-1-0.1-1-0.5
			s0.2-0.4,0.7-0.4c0.6,0,1.1-0.1,1.7-0.2c0.9-0.2,1.1-1.2,1.3-2.5c0.2-1.9,0.2-5.6,0.2-9.8v-4c0-0.1-0.1-0.3-0.3-0.3c0,0,0,0,0,0
			h-17.6c-0.1,0-0.3,0.1-0.3,0.2c0,0,0,0,0,0.1v4c0,4.2,0,7.9,0.2,9.9c0.1,1.3,0.4,2.3,1.8,2.5c0.8,0.1,1.6,0.2,2.4,0.2
			c0.5,0,0.7,0.1,0.7,0.4s-0.4,0.5-0.9,0.5c-3,0-5.9-0.1-7.2-0.1c-1.1,0-4,0.1-5.8,0.1c-0.6,0-0.9-0.1-0.9-0.5s0.2-0.4,0.7-0.4
			c0.6,0,1.1-0.1,1.7-0.2c0.9-0.2,1.2-1.2,1.3-2.5c0.2-1.9,0.2-5.6,0.2-9.8v-8.1c0-7,0-8.3-0.1-9.8s-0.5-2.3-2-2.6
			c-0.6-0.1-1.2-0.2-1.8-0.1c-0.5,0-0.8-0.1-0.8-0.4s0.3-0.4,1-0.4c2.5,0,5.4,0.1,6.6,0.1s4-0.1,5.8-0.1c0.6,0,1,0.1,1,0.4
			s-0.3,0.4-0.8,0.4c-0.4,0-0.9,0.1-1.3,0.1c-1.2,0.2-1.6,1-1.7,2.6c-0.1,1.6-0.1,2.8-0.1,9.8v1c0,0.2,0.1,0.3,0.3,0.3L280.7,27.2"
			/>
		<path class="st0" d="M325,25.9c0-7,0-8.3-0.1-9.8s-0.5-2.3-2-2.6c-0.6-0.1-1.2-0.2-1.8-0.1c-0.5,0-0.8-0.1-0.8-0.4s0.3-0.4,1-0.4
			c2.5,0,5.4,0.1,6.6,0.1s4-0.1,5.8-0.1c0.6,0,1,0.1,1,0.4s-0.3,0.4-0.8,0.4c-0.5,0-0.9,0-1.3,0.1c-1.2,0.2-1.6,1-1.7,2.6
			c-0.1,1.6-0.1,2.8-0.1,9.8v8.5c0,2,0.1,4.2,0.1,6.5c0.1,2.8-0.3,5.5-1.1,8.2c-1,2.8-3.4,6-7.9,8.7c-0.7,0.4-1.5,0.8-2.3,1.2
			c-0.3,0.2-0.6,0.3-0.9,0.3c-0.2,0-0.4-0.2-0.4-0.3c0,0,0,0,0,0c0-0.2,0.2-0.4,1-0.8c0.8-0.5,1.6-1.1,2.2-1.8
			c3.5-3.6,3.5-8.2,3.5-17.2L325,25.9"/>
		<path class="st0" d="M353,35.4c-0.2,0-0.3,0.1-0.4,0.4l-2.5,6.6c-0.4,0.9-0.6,1.8-0.7,2.8c0,0.8,0.4,1.4,1.9,1.4h0.8
			c0.6,0,0.7,0.1,0.7,0.4s-0.3,0.5-0.8,0.5c-1.5,0-3.5-0.1-4.9-0.1c-0.5,0-3,0.1-5.5,0.1c-0.6,0-0.9-0.1-0.9-0.5s0.2-0.4,0.5-0.4
			c0.5,0,1,0,1.4-0.1c2.1-0.3,3-1.8,3.9-4.2l11.6-29c0.6-1.3,0.8-1.9,1.3-1.9s0.7,0.4,1.1,1.5c1.1,2.5,8.5,21.4,11.5,28.4
			c1.8,4.2,3.1,4.8,4.1,5c0.6,0.1,1.3,0.2,1.9,0.2c0.4,0,0.6,0,0.6,0.4s-0.4,0.5-2.1,0.5s-5,0-8.7-0.1c-0.8,0-1.4,0-1.4-0.4
			s0.2-0.4,0.6-0.4c0.4-0.1,0.6-0.6,0.5-1c0,0,0-0.1,0-0.1l-3.7-9.8c-0.1-0.2-0.2-0.3-0.5-0.3L353,35.4 M362.5,33
			c0.2,0,0.3-0.1,0.2-0.3l-4.2-11.4c0-0.2-0.1-0.4-0.2-0.4s-0.2,0.2-0.3,0.4l-4.2,11.4c0,0.2,0,0.3,0.2,0.3L362.5,33z"/>
		<path class="st0" d="M389.5,25.9c0-7,0-8.3-0.1-9.8s-0.5-2.3-2-2.6c-0.6-0.1-1.2-0.2-1.8-0.1c-0.5,0-0.8-0.1-0.8-0.4
			s0.3-0.4,1-0.4c2.5,0,5.4,0.1,6.6,0.1c1.9,0,4.6-0.1,6.7-0.1c5.8,0,7.9,1.9,8.6,2.6c1.5,1.5,2.3,3.4,2.3,5.5
			c0,6.6-4.8,11.2-11.4,11.2c-0.3,0-0.7,0-1,0c-0.2,0-0.6-0.1-0.6-0.4s0.3-0.5,1.3-0.5c2.6,0,6.2-2.9,6.2-7.6c0.2-2.6-0.8-5.2-2.7-7
			c-1.3-1.2-2.9-1.8-4.6-1.8c-0.6,0-1.2,0-1.8,0.2c-0.2,0.1-0.4,0.4-0.4,0.9V34c0,4.2,0,7.9,0.2,9.9c0.1,1.3,0.4,2.3,1.8,2.5
			c0.8,0.1,1.6,0.2,2.4,0.2c0.5,0,0.7,0.1,0.7,0.4s-0.4,0.5-0.9,0.5c-3,0-6-0.1-7.2-0.1s-4,0.1-5.8,0.1c-0.6,0-0.9-0.1-0.9-0.5
			s0.2-0.4,0.7-0.4c0.6,0,1.1,0,1.7-0.2c0.9-0.2,1.1-1.2,1.3-2.5c0.2-1.9,0.2-5.6,0.2-9.8L389.5,25.9"/>
		<path class="st0" d="M426.5,35.4c-0.2,0-0.3,0.1-0.4,0.4l-2.5,6.6c-0.4,0.9-0.6,1.8-0.7,2.8c0,0.8,0.4,1.4,1.9,1.4h0.7
			c0.5,0,0.7,0.1,0.7,0.4s-0.3,0.5-0.8,0.5c-1.5,0-3.5-0.1-4.9-0.1c-0.5,0-3,0.1-5.5,0.1c-0.6,0-0.9-0.1-0.9-0.5s0.2-0.4,0.5-0.4
			c0.5,0,1,0,1.4-0.1c2.1-0.3,3-1.8,3.9-4.2l11.6-29c0.5-1.3,0.8-1.9,1.3-1.9s0.7,0.4,1.1,1.5c1.1,2.5,8.5,21.4,11.5,28.4
			c1.8,4.2,3.1,4.8,4.1,5c0.6,0.1,1.3,0.2,1.9,0.2c0.4,0,0.6,0,0.6,0.4s-0.4,0.5-2.1,0.5s-5,0-8.7-0.1c-0.8,0-1.4,0-1.4-0.4
			s0.2-0.4,0.6-0.4c0.4-0.1,0.6-0.6,0.5-1c0,0,0-0.1,0-0.1l-3.7-9.8c-0.1-0.2-0.2-0.3-0.5-0.3L426.5,35.4 M435.9,33
			c0.2,0,0.3-0.1,0.2-0.3L432,21.4c0-0.2-0.1-0.4-0.2-0.4s-0.2,0.2-0.3,0.4l-4.2,11.4c0,0.2,0,0.3,0.2,0.3L435.9,33z"/>
		<path class="st0" d="M466.5,41.1c0.1,3.6,0.7,4.8,1.6,5.1c0.8,0.2,1.6,0.4,2.4,0.3c0.5,0,0.8,0.1,0.8,0.4s-0.4,0.5-1.1,0.5
			c-3,0-4.9-0.1-5.7-0.1c-0.4,0-2.6,0.1-5,0.1c-0.6,0-1,0-1-0.5s0.3-0.4,0.7-0.4c0.7,0,1.4-0.1,2.1-0.2c1.2-0.4,1.4-1.7,1.4-5.7
			l0.4-27.4c0-0.9,0.1-1.6,0.6-1.6s0.9,0.6,1.7,1.4c0.5,0.6,7.6,8.1,14.3,14.8c3.2,3.1,9.4,9.8,10.2,10.5h0.2l-0.5-20.7
			c0-2.8-0.5-3.7-1.6-4.2c-0.8-0.2-1.6-0.3-2.5-0.3c-0.5,0-0.7-0.1-0.7-0.4s0.5-0.4,1.2-0.4c2.4,0,4.6,0.1,5.6,0.1
			c0.5,0,2.3-0.1,4.5-0.1c0.6,0,1.1,0,1.1,0.4s-0.3,0.4-0.8,0.4c-0.5,0-0.9,0-1.4,0.1c-1.3,0.4-1.7,1.3-1.7,3.9L493,46.5
			c0,1-0.2,1.4-0.6,1.4s-1.1-0.5-1.6-1c-2.9-2.8-8.8-8.8-13.6-13.6c-5-5-10.2-10.8-11-11.6H466L466.5,41.1"/>
	</g>
</g>
</svg>
